<svg width="18" height="20" viewBox="0 0 18 20" fill="none" xmlns="http://www.w3.org/2000/svg">
<path d="M16.7156 2.77881L9.21563 0.52881C9.10275 0.497003 8.98403 0.491445 8.86868 0.512573C8.75332 0.533693 8.64427 0.580935 8.55 0.650685C8.45737 0.721043 8.38215 0.811733 8.33018 0.915765C8.27813 1.01979 8.25075 1.13438 8.25 1.25069V11.4038C7.4289 10.6586 6.35887 10.2473 5.25 10.2507C4.35998 10.2507 3.48996 10.5146 2.74993 11.0091C2.00992 11.5036 1.43314 12.2063 1.09255 13.0286C0.75195 13.8509 0.662835 14.7557 0.836468 15.6286C1.0101 16.5015 1.43869 17.3033 2.06802 17.9326C2.69736 18.562 3.49919 18.9906 4.3721 19.1642C5.24498 19.3378 6.14977 19.2487 6.97207 18.9082C7.79437 18.5676 8.49713 17.9908 8.9916 17.2507C9.48608 16.5107 9.75 15.6407 9.75 14.7507V6.76319L16.2844 8.72256C16.3973 8.75436 16.516 8.75991 16.6313 8.73884C16.7467 8.71769 16.8557 8.67044 16.95 8.60069C17.0426 8.53034 17.1179 8.43966 17.1698 8.33564C17.2219 8.23161 17.2493 8.11701 17.25 8.00069V3.50069C17.2493 3.33917 17.1971 3.18209 17.101 3.05228C17.0049 2.92246 16.8699 2.82667 16.7156 2.77881Z" fill="#0A0A0A"/>
</svg>
